<mxfile host="app.diagrams.net" modified="2022-04-27T14:46:22.622Z" agent="5.0 (X11; CrOS x86_64 14695.9.0) AppleWebKit/537.36 (KHTML, like Gecko) Chrome/102.0.0.0 Safari/537.36" etag="t79CBHCtLFcCfbgkGZIj" version="17.4.6" type="github">
  <diagram id="AOQWxb-GcvcB9rNOiJUd" name="Page-1">
    <mxGraphModel dx="942" dy="606" grid="1" gridSize="10" guides="1" tooltips="1" connect="1" arrows="1" fold="1" page="1" pageScale="1" pageWidth="827" pageHeight="1169" math="0" shadow="0">
      <root>
        <mxCell id="0" />
        <mxCell id="1" parent="0" />
        <mxCell id="a8eWYTb7wFYsISAkZos1-38" style="edgeStyle=orthogonalEdgeStyle;rounded=0;orthogonalLoop=1;jettySize=auto;html=1;exitX=1;exitY=0.5;exitDx=0;exitDy=0;entryX=1;entryY=0.885;entryDx=0;entryDy=0;entryPerimeter=0;endArrow=none;endFill=0;strokeColor=#FF0000;" edge="1" parent="1" source="a8eWYTb7wFYsISAkZos1-4" target="a8eWYTb7wFYsISAkZos1-27">
          <mxGeometry relative="1" as="geometry" />
        </mxCell>
        <mxCell id="a8eWYTb7wFYsISAkZos1-41" style="edgeStyle=orthogonalEdgeStyle;rounded=0;orthogonalLoop=1;jettySize=auto;html=1;exitX=1;exitY=0.5;exitDx=0;exitDy=0;entryX=1;entryY=0.885;entryDx=0;entryDy=0;entryPerimeter=0;endArrow=none;endFill=0;strokeColor=#FF0000;" edge="1" parent="1" source="a8eWYTb7wFYsISAkZos1-4" target="a8eWYTb7wFYsISAkZos1-40">
          <mxGeometry relative="1" as="geometry">
            <Array as="points">
              <mxPoint x="150" y="120" />
              <mxPoint x="230" y="120" />
              <mxPoint x="230" y="357" />
            </Array>
          </mxGeometry>
        </mxCell>
        <mxCell id="a8eWYTb7wFYsISAkZos1-44" style="edgeStyle=orthogonalEdgeStyle;rounded=0;orthogonalLoop=1;jettySize=auto;html=1;exitX=1;exitY=0.5;exitDx=0;exitDy=0;entryX=0.7;entryY=0;entryDx=0;entryDy=0;entryPerimeter=0;endArrow=none;endFill=0;strokeColor=#000000;" edge="1" parent="1" source="a8eWYTb7wFYsISAkZos1-4" target="a8eWYTb7wFYsISAkZos1-26">
          <mxGeometry relative="1" as="geometry" />
        </mxCell>
        <mxCell id="a8eWYTb7wFYsISAkZos1-4" value="" style="pointerEvents=1;verticalLabelPosition=bottom;shadow=0;dashed=0;align=center;html=1;verticalAlign=top;shape=mxgraph.electrical.miscellaneous.batteryStack;rotation=-90;" vertex="1" parent="1">
          <mxGeometry x="100" y="160" width="100" height="60" as="geometry" />
        </mxCell>
        <mxCell id="a8eWYTb7wFYsISAkZos1-50" style="edgeStyle=orthogonalEdgeStyle;rounded=0;orthogonalLoop=1;jettySize=auto;html=1;exitX=1;exitY=0.57;exitDx=0;exitDy=0;exitPerimeter=0;entryX=0;entryY=0.5;entryDx=0;entryDy=0;endArrow=none;endFill=0;strokeColor=#000000;" edge="1" parent="1" source="a8eWYTb7wFYsISAkZos1-7" target="a8eWYTb7wFYsISAkZos1-4">
          <mxGeometry relative="1" as="geometry" />
        </mxCell>
        <mxCell id="a8eWYTb7wFYsISAkZos1-7" value="" style="verticalLabelPosition=bottom;shadow=0;dashed=0;align=center;html=1;verticalAlign=top;shape=mxgraph.electrical.opto_electronics.led_2;pointerEvents=1;rotation=-180;" vertex="1" parent="1">
          <mxGeometry x="257.5" y="450" width="100" height="70" as="geometry" />
        </mxCell>
        <mxCell id="a8eWYTb7wFYsISAkZos1-8" value="5 V" style="text;html=1;align=center;verticalAlign=middle;resizable=0;points=[];autosize=1;strokeColor=none;fillColor=none;fontSize=11;fontFamily=Helvetica;fontColor=default;" vertex="1" parent="1">
          <mxGeometry x="80" y="180" width="30" height="20" as="geometry" />
        </mxCell>
        <mxCell id="a8eWYTb7wFYsISAkZos1-9" value="220&amp;nbsp;Ω" style="text;html=1;align=center;verticalAlign=middle;resizable=0;points=[];autosize=1;strokeColor=none;fillColor=none;fontSize=11;fontFamily=Helvetica;fontColor=default;" vertex="1" parent="1">
          <mxGeometry x="420" y="510" width="40" height="20" as="geometry" />
        </mxCell>
        <mxCell id="a8eWYTb7wFYsISAkZos1-10" value="LED 1" style="text;html=1;align=center;verticalAlign=middle;resizable=0;points=[];autosize=1;strokeColor=none;fillColor=none;fontSize=11;fontFamily=Helvetica;fontColor=default;" vertex="1" parent="1">
          <mxGeometry x="282.5" y="530" width="50" height="20" as="geometry" />
        </mxCell>
        <mxCell id="a8eWYTb7wFYsISAkZos1-11" value="Daria Bernice Calitis&lt;br&gt;TEJ3M&lt;br&gt;Unit4-08" style="text;html=1;align=center;verticalAlign=middle;resizable=0;points=[];autosize=1;strokeColor=none;fillColor=none;fontSize=11;fontFamily=Helvetica;fontColor=default;" vertex="1" parent="1">
          <mxGeometry x="110" y="55" width="110" height="40" as="geometry" />
        </mxCell>
        <mxCell id="a8eWYTb7wFYsISAkZos1-12" value="AND gate with Transistor" style="text;html=1;align=center;verticalAlign=middle;resizable=0;points=[];autosize=1;strokeColor=none;fillColor=none;" vertex="1" parent="1">
          <mxGeometry x="330" y="55" width="150" height="20" as="geometry" />
        </mxCell>
        <mxCell id="a8eWYTb7wFYsISAkZos1-16" value="&lt;span style=&quot;color: rgb(52, 73, 94); font-size: 15px; font-style: normal; font-weight: 400; letter-spacing: normal; text-align: left; text-indent: 0px; text-transform: none; word-spacing: 0px; background-color: rgb(244, 245, 246); display: inline; float: none;&quot;&gt;AND Gate Truth Table&lt;/span&gt;&lt;div style=&quot;color: rgb(52, 73, 94); font-size: 15px; font-style: normal; font-weight: 400; letter-spacing: normal; text-align: left; text-indent: 0px; text-transform: none; word-spacing: 0px; background-color: rgb(244, 245, 246);&quot;&gt;&lt;br&gt;&lt;/div&gt;&lt;div style=&quot;color: rgb(52, 73, 94); font-size: 15px; font-style: normal; font-weight: 400; letter-spacing: normal; text-align: left; text-indent: 0px; text-transform: none; word-spacing: 0px; background-color: rgb(244, 245, 246);&quot;&gt;Input A | Input B | Output&lt;/div&gt;&lt;div style=&quot;color: rgb(52, 73, 94); font-size: 15px; font-style: normal; font-weight: 400; letter-spacing: normal; text-align: left; text-indent: 0px; text-transform: none; word-spacing: 0px; background-color: rgb(244, 245, 246);&quot;&gt;--------------------------------&lt;/div&gt;&lt;div style=&quot;color: rgb(52, 73, 94); font-size: 15px; font-style: normal; font-weight: 400; letter-spacing: normal; text-align: left; text-indent: 0px; text-transform: none; word-spacing: 0px; background-color: rgb(244, 245, 246);&quot;&gt;&amp;nbsp; &amp;nbsp; &amp;nbsp;0&amp;nbsp; &amp;nbsp; &amp;nbsp; |&amp;nbsp; &amp;nbsp; &amp;nbsp; 0&amp;nbsp; &amp;nbsp; &amp;nbsp;|&amp;nbsp; &amp;nbsp; &amp;nbsp; 0&lt;/div&gt;&lt;div style=&quot;color: rgb(52, 73, 94); font-size: 15px; font-style: normal; font-weight: 400; letter-spacing: normal; text-align: left; text-indent: 0px; text-transform: none; word-spacing: 0px; background-color: rgb(244, 245, 246);&quot;&gt;&amp;nbsp; &amp;nbsp; &amp;nbsp;0&amp;nbsp; &amp;nbsp; &amp;nbsp; |&amp;nbsp; &amp;nbsp; &amp;nbsp; 1&amp;nbsp; &amp;nbsp; &amp;nbsp;|&amp;nbsp; &amp;nbsp; &amp;nbsp; 0&lt;/div&gt;&lt;div style=&quot;color: rgb(52, 73, 94); font-size: 15px; font-style: normal; font-weight: 400; letter-spacing: normal; text-align: left; text-indent: 0px; text-transform: none; word-spacing: 0px; background-color: rgb(244, 245, 246);&quot;&gt;&amp;nbsp; &amp;nbsp; &amp;nbsp;1&amp;nbsp; &amp;nbsp; &amp;nbsp; |&amp;nbsp; &amp;nbsp; &amp;nbsp; 0&amp;nbsp; &amp;nbsp; &amp;nbsp;|&amp;nbsp; &amp;nbsp; &amp;nbsp; 0&lt;/div&gt;&lt;div style=&quot;color: rgb(52, 73, 94); font-size: 15px; font-style: normal; font-weight: 400; letter-spacing: normal; text-align: left; text-indent: 0px; text-transform: none; word-spacing: 0px; background-color: rgb(244, 245, 246);&quot;&gt;&amp;nbsp; &amp;nbsp; &amp;nbsp;1&amp;nbsp; &amp;nbsp; &amp;nbsp; |&amp;nbsp; &amp;nbsp; &amp;nbsp; 1&amp;nbsp; &amp;nbsp; &amp;nbsp;|&amp;nbsp; &amp;nbsp; &amp;nbsp; 1&amp;nbsp; &amp;nbsp;&amp;nbsp;&lt;/div&gt;" style="whiteSpace=wrap;html=1;align=left;" vertex="1" parent="1">
          <mxGeometry x="650" y="310" width="165" height="160" as="geometry" />
        </mxCell>
        <mxCell id="a8eWYTb7wFYsISAkZos1-32" style="edgeStyle=orthogonalEdgeStyle;rounded=0;orthogonalLoop=1;jettySize=auto;html=1;exitX=1;exitY=0.5;exitDx=0;exitDy=0;exitPerimeter=0;entryX=0;entryY=0.5;entryDx=0;entryDy=0;entryPerimeter=0;endArrow=none;endFill=0;" edge="1" parent="1" source="a8eWYTb7wFYsISAkZos1-19" target="a8eWYTb7wFYsISAkZos1-26">
          <mxGeometry relative="1" as="geometry" />
        </mxCell>
        <mxCell id="a8eWYTb7wFYsISAkZos1-37" style="edgeStyle=orthogonalEdgeStyle;rounded=0;orthogonalLoop=1;jettySize=auto;html=1;exitX=0;exitY=0.5;exitDx=0;exitDy=0;exitPerimeter=0;entryX=0;entryY=0.885;entryDx=0;entryDy=0;entryPerimeter=0;endArrow=none;endFill=0;" edge="1" parent="1" source="a8eWYTb7wFYsISAkZos1-19" target="a8eWYTb7wFYsISAkZos1-27">
          <mxGeometry relative="1" as="geometry" />
        </mxCell>
        <mxCell id="a8eWYTb7wFYsISAkZos1-19" value="" style="pointerEvents=1;verticalLabelPosition=bottom;shadow=0;dashed=0;align=center;html=1;verticalAlign=top;shape=mxgraph.electrical.resistors.resistor_1;" vertex="1" parent="1">
          <mxGeometry x="390" y="210" width="100" height="20" as="geometry" />
        </mxCell>
        <mxCell id="a8eWYTb7wFYsISAkZos1-20" value="4.7 K Ω" style="text;html=1;align=center;verticalAlign=middle;resizable=0;points=[];autosize=1;strokeColor=none;fillColor=none;fontSize=11;fontFamily=Helvetica;fontColor=default;" vertex="1" parent="1">
          <mxGeometry x="417.05" y="240" width="50" height="20" as="geometry" />
        </mxCell>
        <mxCell id="a8eWYTb7wFYsISAkZos1-21" value="+" style="text;html=1;align=center;verticalAlign=middle;resizable=0;points=[];autosize=1;strokeColor=none;fillColor=none;" vertex="1" parent="1">
          <mxGeometry x="100" y="130" width="20" height="20" as="geometry" />
        </mxCell>
        <mxCell id="a8eWYTb7wFYsISAkZos1-22" value="-" style="text;html=1;align=center;verticalAlign=middle;resizable=0;points=[];autosize=1;strokeColor=none;fillColor=none;" vertex="1" parent="1">
          <mxGeometry x="100" y="220" width="20" height="20" as="geometry" />
        </mxCell>
        <mxCell id="a8eWYTb7wFYsISAkZos1-45" style="edgeStyle=orthogonalEdgeStyle;rounded=0;orthogonalLoop=1;jettySize=auto;html=1;exitX=0.7;exitY=1;exitDx=0;exitDy=0;exitPerimeter=0;entryX=0.7;entryY=0;entryDx=0;entryDy=0;entryPerimeter=0;endArrow=none;endFill=0;strokeColor=#000000;" edge="1" parent="1" source="a8eWYTb7wFYsISAkZos1-26" target="a8eWYTb7wFYsISAkZos1-34">
          <mxGeometry relative="1" as="geometry" />
        </mxCell>
        <mxCell id="a8eWYTb7wFYsISAkZos1-26" value="" style="verticalLabelPosition=bottom;shadow=0;dashed=0;align=center;html=1;verticalAlign=top;shape=mxgraph.electrical.transistors.npn_transistor_1;comic=0;flipV=0;" vertex="1" parent="1">
          <mxGeometry x="530" y="170" width="95" height="100" as="geometry" />
        </mxCell>
        <mxCell id="a8eWYTb7wFYsISAkZos1-42" style="edgeStyle=orthogonalEdgeStyle;rounded=0;orthogonalLoop=1;jettySize=auto;html=1;exitX=1;exitY=0.115;exitDx=0;exitDy=0;exitPerimeter=0;entryX=1;entryY=0.115;entryDx=0;entryDy=0;entryPerimeter=0;endArrow=none;endFill=0;strokeColor=#000000;" edge="1" parent="1" source="a8eWYTb7wFYsISAkZos1-27" target="a8eWYTb7wFYsISAkZos1-40">
          <mxGeometry relative="1" as="geometry" />
        </mxCell>
        <mxCell id="a8eWYTb7wFYsISAkZos1-27" value="" style="pointerEvents=1;verticalLabelPosition=bottom;shadow=0;dashed=0;align=center;html=1;verticalAlign=top;shape=mxgraph.electrical.electro-mechanical.2-way_switch;rotation=-180;" vertex="1" parent="1">
          <mxGeometry x="270" y="214" width="75" height="26" as="geometry" />
        </mxCell>
        <mxCell id="a8eWYTb7wFYsISAkZos1-46" style="edgeStyle=orthogonalEdgeStyle;rounded=0;orthogonalLoop=1;jettySize=auto;html=1;exitX=0;exitY=0.5;exitDx=0;exitDy=0;exitPerimeter=0;entryX=0;entryY=0.5;entryDx=0;entryDy=0;entryPerimeter=0;endArrow=none;endFill=0;strokeColor=#000000;" edge="1" parent="1" source="a8eWYTb7wFYsISAkZos1-33" target="a8eWYTb7wFYsISAkZos1-34">
          <mxGeometry relative="1" as="geometry" />
        </mxCell>
        <mxCell id="a8eWYTb7wFYsISAkZos1-48" style="edgeStyle=orthogonalEdgeStyle;rounded=0;orthogonalLoop=1;jettySize=auto;html=1;exitX=1;exitY=0.5;exitDx=0;exitDy=0;exitPerimeter=0;entryX=0;entryY=0.885;entryDx=0;entryDy=0;entryPerimeter=0;endArrow=none;endFill=0;strokeColor=#000000;" edge="1" parent="1" source="a8eWYTb7wFYsISAkZos1-33" target="a8eWYTb7wFYsISAkZos1-40">
          <mxGeometry relative="1" as="geometry" />
        </mxCell>
        <mxCell id="a8eWYTb7wFYsISAkZos1-33" value="" style="pointerEvents=1;verticalLabelPosition=bottom;shadow=0;dashed=0;align=center;html=1;verticalAlign=top;shape=mxgraph.electrical.resistors.resistor_1;rotation=-180;" vertex="1" parent="1">
          <mxGeometry x="390" y="350" width="100" height="20" as="geometry" />
        </mxCell>
        <mxCell id="a8eWYTb7wFYsISAkZos1-53" style="edgeStyle=orthogonalEdgeStyle;rounded=0;orthogonalLoop=1;jettySize=auto;html=1;exitX=0.7;exitY=1;exitDx=0;exitDy=0;exitPerimeter=0;entryX=0;entryY=0.5;entryDx=0;entryDy=0;entryPerimeter=0;endArrow=none;endFill=0;strokeColor=#000000;" edge="1" parent="1" source="a8eWYTb7wFYsISAkZos1-34" target="a8eWYTb7wFYsISAkZos1-51">
          <mxGeometry relative="1" as="geometry" />
        </mxCell>
        <mxCell id="a8eWYTb7wFYsISAkZos1-34" value="" style="verticalLabelPosition=bottom;shadow=0;dashed=0;align=center;html=1;verticalAlign=top;shape=mxgraph.electrical.transistors.npn_transistor_1;comic=0;flipV=0;" vertex="1" parent="1">
          <mxGeometry x="530" y="310" width="95" height="100" as="geometry" />
        </mxCell>
        <mxCell id="a8eWYTb7wFYsISAkZos1-43" style="edgeStyle=orthogonalEdgeStyle;rounded=0;orthogonalLoop=1;jettySize=auto;html=1;exitX=1;exitY=0.115;exitDx=0;exitDy=0;exitPerimeter=0;entryX=0;entryY=0.5;entryDx=0;entryDy=0;endArrow=none;endFill=0;strokeColor=#000000;" edge="1" parent="1" source="a8eWYTb7wFYsISAkZos1-40" target="a8eWYTb7wFYsISAkZos1-4">
          <mxGeometry relative="1" as="geometry">
            <Array as="points">
              <mxPoint x="280" y="410" />
              <mxPoint x="150" y="410" />
            </Array>
          </mxGeometry>
        </mxCell>
        <mxCell id="a8eWYTb7wFYsISAkZos1-40" value="" style="pointerEvents=1;verticalLabelPosition=bottom;shadow=0;dashed=0;align=center;html=1;verticalAlign=top;shape=mxgraph.electrical.electro-mechanical.2-way_switch;rotation=-180;" vertex="1" parent="1">
          <mxGeometry x="280" y="354" width="75" height="26" as="geometry" />
        </mxCell>
        <mxCell id="a8eWYTb7wFYsISAkZos1-54" style="edgeStyle=orthogonalEdgeStyle;rounded=0;orthogonalLoop=1;jettySize=auto;html=1;exitX=1;exitY=0.5;exitDx=0;exitDy=0;exitPerimeter=0;entryX=0;entryY=0.57;entryDx=0;entryDy=0;entryPerimeter=0;endArrow=none;endFill=0;strokeColor=#000000;" edge="1" parent="1" source="a8eWYTb7wFYsISAkZos1-51" target="a8eWYTb7wFYsISAkZos1-7">
          <mxGeometry relative="1" as="geometry" />
        </mxCell>
        <mxCell id="a8eWYTb7wFYsISAkZos1-51" value="" style="pointerEvents=1;verticalLabelPosition=bottom;shadow=0;dashed=0;align=center;html=1;verticalAlign=top;shape=mxgraph.electrical.resistors.resistor_1;rotation=-180;" vertex="1" parent="1">
          <mxGeometry x="390" y="470" width="100" height="20" as="geometry" />
        </mxCell>
        <mxCell id="a8eWYTb7wFYsISAkZos1-55" value="&lt;h1&gt;Input A&lt;/h1&gt;" style="text;html=1;strokeColor=none;fillColor=none;spacing=5;spacingTop=-20;whiteSpace=wrap;overflow=hidden;rounded=0;" vertex="1" parent="1">
          <mxGeometry x="280" y="160" width="100" height="40" as="geometry" />
        </mxCell>
        <mxCell id="a8eWYTb7wFYsISAkZos1-56" value="&lt;h1&gt;Input B&lt;/h1&gt;" style="text;html=1;strokeColor=none;fillColor=none;spacing=5;spacingTop=-20;whiteSpace=wrap;overflow=hidden;rounded=0;" vertex="1" parent="1">
          <mxGeometry x="282.5" y="280" width="100" height="40" as="geometry" />
        </mxCell>
        <mxCell id="a8eWYTb7wFYsISAkZos1-57" value="&lt;h1&gt;Output&lt;/h1&gt;" style="text;html=1;strokeColor=none;fillColor=none;spacing=5;spacingTop=-20;whiteSpace=wrap;overflow=hidden;rounded=0;" vertex="1" parent="1">
          <mxGeometry x="282.5" y="400" width="100" height="40" as="geometry" />
        </mxCell>
        <mxCell id="a8eWYTb7wFYsISAkZos1-59" value="4.7 K Ω" style="text;html=1;align=center;verticalAlign=middle;resizable=0;points=[];autosize=1;strokeColor=none;fillColor=none;fontSize=11;fontFamily=Helvetica;fontColor=default;" vertex="1" parent="1">
          <mxGeometry x="415" y="380" width="50" height="20" as="geometry" />
        </mxCell>
      </root>
    </mxGraphModel>
  </diagram>
</mxfile>
